<?xml version="1.0" encoding="UTF-8" standalone="no"?>
<svg
   xmlns:dc="http://purl.org/dc/elements/1.1/"
   xmlns:cc="http://creativecommons.org/ns#"
   xmlns:rdf="http://www.w3.org/1999/02/22-rdf-syntax-ns#"
   xmlns:svg="http://www.w3.org/2000/svg"
   xmlns="http://www.w3.org/2000/svg"
   xmlns:sodipodi="http://sodipodi.sourceforge.net/DTD/sodipodi-0.dtd"
   xmlns:inkscape="http://www.inkscape.org/namespaces/inkscape"
   viewBox="-76 212 457.54745 580.55005"
   version="1.1"
   id="svg6"
   sodipodi:docname="python-in-coffeescript.svg"
   width="457.54745"
   height="580.55005"
   inkscape:version="0.92.3 (2405546, 2018-03-11)"
   inkscape:export-filename="C:\Users\edemaine\Downloads\python-in-coffeescript.png"
   inkscape:export-xdpi="299.93582"
   inkscape:export-ydpi="299.93582">
  <metadata
     id="metadata12">
    <rdf:RDF>
      <cc:Work
         rdf:about="">
        <dc:format>image/svg+xml</dc:format>
        <dc:type
           rdf:resource="http://purl.org/dc/dcmitype/StillImage" />
        <dc:title>
        CoffeeScript Logo
    </dc:title>
      </cc:Work>
    </rdf:RDF>
  </metadata>
  <defs
     id="defs10">
    <clipPath
       clipPathUnits="userSpaceOnUse"
       id="clipPath4784">
      <rect
         transform="scale(1,-1)"
         y="-234.16707"
         x="111.52087"
         height="199.06819"
         width="175.80046"
         id="rect4786"
         style="fill:#ffffff;fill-opacity:1;stroke:none;stroke-width:19.99999809;stroke-linecap:round;stroke-linejoin:round;stroke-miterlimit:4;stroke-dasharray:19.99999921, 39.99999844;stroke-dashoffset:0;stroke-opacity:0.98823529" />
    </clipPath>
    <clipPath
       clipPathUnits="userSpaceOnUse"
       id="clipPath4823">
      <rect
         y="243.96997"
         x="170.56413"
         height="35.680332"
         width="62.151772"
         id="rect4825"
         style="fill:#000000;fill-opacity:1;stroke:none;stroke-width:20;stroke-linecap:round;stroke-linejoin:round;stroke-miterlimit:4;stroke-dasharray:20.00000007, 40.00000014;stroke-dashoffset:0;stroke-opacity:0.98823529" />
    </clipPath>
  </defs>
  <sodipodi:namedview
     pagecolor="#ffffff"
     bordercolor="#666666"
     borderopacity="1"
     objecttolerance="10"
     gridtolerance="10"
     guidetolerance="10"
     inkscape:pageopacity="0"
     inkscape:pageshadow="2"
     inkscape:window-width="1565"
     inkscape:window-height="1079"
     id="namedview8"
     showgrid="false"
     fit-margin-top="0"
     fit-margin-left="0"
     fit-margin-right="0"
     fit-margin-bottom="0"
     inkscape:zoom="1.2791328"
     inkscape:cx="212.14731"
     inkscape:cy="346.81675"
     inkscape:window-x="2706"
     inkscape:window-y="975"
     inkscape:window-maximized="0"
     inkscape:current-layer="g4688" />
  <title
     id="title2">
        CoffeeScript Logo
    </title>
  <g
     inkscape:groupmode="layer"
     id="layer3"
     inkscape:label="Back S"
     transform="translate(0,2.5064105)">
    <path
       style="fill:#000000;fill-opacity:1"
       d="m 106,228.6 c 0.5,2.3 -0.9,4.4 -5,6.5 -5.5,-3.1 -16.9,-4.4 -26.7,-3.5 -10.4,0.9 -19.4,4.2 -17.9,11.3 1.5,7.1 11.7,11 29.5,9.5 43.6,-3.8 43.4,-33.3 107.4,-39 49.8,-4.4 77.8,11 81.8,29.7 3.1,14.7 -9.1,28.6 -45.2,31.8 -32,2.8 -50.7,-5.6 -52.6,-14.6 -1,-4.5 1.8,-11.3 17.2,-13.1 1.5,7 10.6,14.4 31.1,12.6 14.8,-1.3 27.6,-6.6 25.9,-14.9 -1.8,-8.6 -17.7,-13.7 -42.6,-11.5 -50.7,4.5 -63.2,32.5 -106.8,36.3 -30.8,2.7 -55.9,-8.5 -59.4,-25.1 -1.3,-6.1 -1.4,-21 31.2,-23.9 17.1,-1.5 30.7,1.5 32.1,7.9 z"
       id="path4775"
       inkscape:connector-curvature="0"
       transform="translate(-0.252551,209.41743)" />
  </g>
  <g
     inkscape:groupmode="layer"
     id="layer2"
     inkscape:label="Python"
     style="display:inline"
     transform="translate(-0.25255076,211.92384)">
    <g
       id="g4688"
       transform="matrix(1.8143642,0,0,1.8143642,-217.36067,-117.4872)"
       style="stroke-width:0.33069435"
       clip-path="url(#clipPath4784)">
      <path
         id="path-0"
         d="m 257.80757,89.885224 c -3.604,1.956 -5.631,-4.575 -10,-7 -17.519,-9.725 -38.757,4.782 -46,18.999996 -7.296,-39.845996 51.417,-43.477996 56,-11.999996 z"
         inkscape:connector-curvature="0"
         style="clip-rule:evenodd;fill:#b4ce51;fill-rule:evenodd;stroke-width:0.33069435" />
      <path
         id="path-1"
         d="m 203.80757,78.885224 c -0.99,3.01 -3.538,4.462 -3,9 -9.231,-3.312 -15.709,2.305 -17,10 -7.887,-13.253 8.414,-28.34 20,-19 z"
         inkscape:connector-curvature="0"
         style="clip-rule:evenodd;fill:#b4ce51;fill-rule:evenodd;stroke-width:0.33069435" />
      <path
         id="path-2"
         d="m 160.80757,113.88522 c 7.562,-1.015 11.952,5.755 10,11 -5.759,2.467 -11.092,-3.361 -10,-11 z m 9,10 c 0.193,-5.526 -3.262,-7.404 -7,-9 -1.978,3.773 2.214,8.785 7,9 z"
         inkscape:connector-curvature="0"
         style="clip-rule:evenodd;fill-rule:evenodd;stroke-width:0.33069435" />
      <path
         id="path-3"
         d="m 162.80757,114.88522 c 3.738,1.596 7.193,3.474 7,9 -4.786,-0.215 -8.978,-5.227 -7,-9 z"
         inkscape:connector-curvature="0"
         style="clip-rule:evenodd;fill:#b4ce51;fill-rule:evenodd;stroke-width:0.33069435" />
      <path
         id="path-4"
         d="m 261.80757,157.88522 c 0.667,0 1.333,0 2,0 -9.477,15.856 -18.376,32.291 -27,49 0.506,3.839 -6.006,0.661 -6,4 -1.321,2.95 1.934,5.173 2,8 0.088,3.781 -1.039,14.719 -3,19 -2.708,5.91 -12.392,6.475 -9,19 1.181,4.359 4.267,5.57 9,8 6.203,42.36 51.059,69.709 102,53 6.902,-2.264 13.479,-7.269 20,-8 10.788,-1.211 20.102,4.536 24,10 14.925,20.914 -5.607,52.212 -29,54 6.643,-43.841 -65.089,-43.386 -63,-4 -33.181,-16.635 -67.575,-40.277 -72,-86 -3.687,-38.095 12.392,-67.775 25,-95 15.771,-3.551 5.868,-21.417 15,-30 3.396,-0.271 8.107,0.774 10,-1 z m -41,106 c -2.436,1.447 -3.533,9.952 1,10 5.486,0.063 5.417,-11.154 -1,-10 z m 6,42 c 1.333,0 2.667,0 4,0 5.314,-8.465 -9.094,-8.185 -4,0 z m 19,28 c 10.537,-3.544 4.621,-27.431 -8,-24 -14.855,4.038 -3.68,27.928 8,24 z m 96,-4 c -0.096,6.715 9.335,17.113 18,11 13.741,-17.089 -17.694,-32.38 -18,-11 z m -42,5 c 0.751,2.313 7.777,3.492 7,-1 -0.047,-3.018 -8.168,-3.101 -7,1 z m -53,8 c 2.827,3.655 11.014,2.07 9,-5 -3.718,-2.478 -10.019,-0.433 -9,5 z m 34,0 c 3.548,2.569 8.973,0.103 9,-4 -0.779,-0.221 -1.163,-0.837 -1,-2 -5.218,-0.551 -8.891,0.442 -8,6 z m 69,10 c 1.667,0 3.333,0 5,0 1.448,-2.503 2.422,-3.927 1,-7 -5.538,-4 -10.504,3.349 -6,7 z"
         inkscape:connector-curvature="0"
         style="clip-rule:evenodd;fill:#b4ce51;fill-rule:evenodd;stroke-width:0.33069435" />
      <path
         id="path-5"
         d="m 132.80757,180.88522 c -1.658,-1.081 5.028,-2.239 8,-2 2.441,2.541 6.207,0.779 8,2 0.529,0.804 1.043,1.624 1,3 -4.173,-2.493 -9.691,-3.642 -17,-3 z"
         inkscape:connector-curvature="0"
         style="clip-rule:evenodd;fill-rule:evenodd;stroke-width:0.33069435" />
      <path
         id="path-6"
         d="m 316.80757,253.88522 c -19.935,-6.533 -25.083,26.819 0,22 -7.099,16.076 -38.32,11.637 -59,11 20.746,-2.743 44.497,-40.447 11,-46 15.845,-10.839 44.104,-5.096 48,13 z m -30,18 c 2.981,2.76 7.359,3.587 11,1 0,-1.667 0,-3.333 0,-5 -3.029,-3.736 -11.995,-2.248 -11,4 z m 3,9 c -10.06,-10.954 -7.259,13.002 0,0 z"
         inkscape:connector-curvature="0"
         style="clip-rule:evenodd;fill:#b4ce51;fill-rule:evenodd;stroke-width:0.33069435" />
      <path
         id="path-7"
         d="m 231.80757,239.88522 c 0,5.333 0,10.667 0,16 -1.662,-3.035 -1.662,-12.965 0,-16 z"
         inkscape:connector-curvature="0"
         style="clip-rule:evenodd;fill:#b4ce51;fill-rule:evenodd;stroke-width:0.33069435" />
      <path
         id="path-8"
         d="m 226.80757,242.88522 c 3.412,-3.345 1.541,7.077 2,10 -2.922,-1.078 0.922,-8.922 -2,-10 z"
         inkscape:connector-curvature="0"
         style="clip-rule:evenodd;fill:#b4ce51;fill-rule:evenodd;stroke-width:0.33069435" />
      <path
         id="path-9"
         d="m 318.80757,259.88522 c 1.655,1.078 1.655,8.922 0,10 0,-3.333 0,-6.667 0,-10 z"
         inkscape:connector-curvature="0"
         style="clip-rule:evenodd;fill:#b4ce51;fill-rule:evenodd;stroke-width:0.33069435" />
      <path
         id="path-10"
         d="m 221.80757,273.88522 c -4.533,-0.048 -3.436,-8.553 -1,-10 6.417,-1.154 6.486,10.063 1,10 z m 2,-2 c 0,-2 0,-4 0,-6 -1,0 -2,0 -3,0 -1.855,1.973 -1.487,7.363 3,6 z"
         inkscape:connector-curvature="0"
         style="clip-rule:evenodd;fill-rule:evenodd;stroke-width:0.33069435" />
      <path
         id="path-11"
         d="m 297.80757,267.88522 c 0,1.667 0,3.333 0,5 -3.641,2.587 -8.019,1.76 -11,-1 -0.995,-6.248 7.971,-7.736 11,-4 z m -9,1 c 0,4.971 8,4.971 8,0 -1.454,-1.47 -6.546,-1.47 -8,0 z"
         inkscape:connector-curvature="0"
         style="clip-rule:evenodd;fill-rule:evenodd;stroke-width:0.33069435" />
      <path
         id="path-12"
         d="m 175.80757,275.88522 c 1.752,-2.958 5.328,0.577 8,0 -0.204,14.537 2.744,25.923 6,37 -9.499,-1.501 -16.969,-5.031 -29,-4 -3.388,-3.612 -6.348,-7.651 -6,-15 14.044,8.618 35.42,-7.222 21,-18 z m -4,27 c 0.776,0.224 1.973,0.027 2,1 4.441,0.441 5.443,-2.557 5,-7 -3.953,-2.975 -8.938,-0.068 -7,6 z"
         inkscape:connector-curvature="0"
         style="clip-rule:evenodd;fill:#b4ce51;fill-rule:evenodd;stroke-width:0.33069435" />
      <path
         id="path-13"
         d="m 289.80757,280.88522 c -7.259,13.002 -10.06,-10.954 0,0 z m -6,2 c 1.333,0 2.667,0 4,0 0.282,-2.615 -0.365,-4.302 -3,-4 -0.314,1.353 -1.424,1.91 -1,4 z"
         inkscape:connector-curvature="0"
         style="clip-rule:evenodd;fill-rule:evenodd;stroke-width:0.33069435" />
      <path
         id="path-14"
         d="m 327.80757,278.88522 c 15.747,0.81 28.073,9.621 24,27 -18.482,13.46 -58.384,20.828 -83,8 2.54,-14.418 -8.169,-20.209 -20,-17 -4.704,-0.963 -4.624,-6.71 -8,-9 13.869,-0.729 32.681,4.843 49,2 4.593,3.744 7.83,10.989 17,12 13.096,1.443 26.15,-7.176 21,-23 z m -41,25 c 2.979,2.902 10.276,2.728 10,-3 -1.02,-4.825 -12.275,-4.206 -10,3 z m 13,2 c -0.319,2.319 0.161,3.839 1,5 2.465,0.132 4.818,0.151 6,-1 0,-1.333 0,-2.667 0,-4 -1.334,-1.427 -5.666,-1.427 -7,0 z"
         inkscape:connector-curvature="0"
         style="clip-rule:evenodd;fill:#b4ce51;fill-rule:evenodd;stroke-width:0.33069435" />
      <path
         id="path-15"
         d="m 178.80757,296.88522 c 0.443,4.443 -0.559,7.441 -5,7 -0.027,-0.973 -1.224,-0.776 -2,-1 -1.938,-6.068 3.047,-8.975 7,-6 z m -2,0 c -3.353,-0.687 -3.656,1.678 -4,4 3.181,2.688 6.456,-0.588 4,-4 z"
         inkscape:connector-curvature="0"
         style="clip-rule:evenodd;fill-rule:evenodd;stroke-width:0.33069435" />
      <path
         id="path-16"
         d="m 296.80757,300.88522 c 0.276,5.728 -7.021,5.902 -10,3 -2.275,-7.206 8.98,-7.825 10,-3 z m -9,1 c 1.42,2.278 8.257,3.643 7,-2 -2.829,0.171 -6.86,-0.86 -7,2 z"
         inkscape:connector-curvature="0"
         style="clip-rule:evenodd;fill-rule:evenodd;stroke-width:0.33069435" />
      <path
         id="path-17"
         d="m 306.80757,305.88522 c 0,1.333 0,2.667 0,4 -1.182,1.151 -3.535,1.132 -6,1 -0.839,-1.161 -1.319,-2.681 -1,-5 1.334,-1.427 5.666,-1.427 7,0 z m -2,0 c -1,0 -2,0 -3,0 -0.279,2.279 0.241,3.759 2,4 0.314,-1.353 1.424,-1.91 1,-4 z"
         inkscape:connector-curvature="0"
         style="clip-rule:evenodd;fill-rule:evenodd;stroke-width:0.33069435" />
      <path
         id="path-18"
         d="m 237.80757,309.88522 c 12.621,-3.431 18.537,20.456 8,24 -11.68,3.928 -22.855,-19.962 -8,-24 z m -5,6 c -2.833,8.018 3.794,15.647 11,17 16.943,-7.577 -5.458,-32.678 -11,-17 z"
         inkscape:connector-curvature="0"
         style="clip-rule:evenodd;fill-rule:evenodd;stroke-width:0.33069435" />
      <path
         id="path-19"
         d="m 191.80757,317.88522 c 0.061,5.422 -7.116,3.143 -9,9 -4.129,12.838 11.518,23.172 21,13 12.74,13.26 22.563,29.438 44,34 -17.335,2.331 -38.999,0.335 -58,1 10.837,-33.929 -41.291,-42.05 -49,-16 -4.834,-5.929 -7.473,-13.119 -7,-22 1.375,-25.852 35.733,-32.415 58,-19 z m -29,12 c 1.182,1.151 3.535,1.132 6,1 0.132,-2.465 0.151,-4.818 -1,-6 -3.465,-0.132 -5.805,0.861 -5,5 z m -9,9 c 2.525,2.445 9.833,3.138 10,-2 0.324,-6.136 -12.461,-5.452 -10,2 z"
         inkscape:connector-curvature="0"
         style="clip-rule:evenodd;fill:#b4ce51;fill-rule:evenodd;stroke-width:0.33069435" />
      <path
         id="path-20"
         d="m 359.80757,340.88522 c -8.665,6.113 -18.096,-4.285 -18,-11 0.306,-21.38 31.741,-6.089 18,11 z m -4,0 c 9.242,-2.605 4.297,-25.649 -8,-19 -9.299,5.028 -1.542,21.69 8,19 z"
         inkscape:connector-curvature="0"
         style="clip-rule:evenodd;fill-rule:evenodd;stroke-width:0.33069435" />
      <path
         id="path-21"
         d="m 163.80757,336.88522 c -0.167,5.138 -7.475,4.445 -10,2 -2.461,-7.452 10.324,-8.136 10,-2 z m -8,-2 c -1.807,5.467 7.807,5.467 6,0 -2,0 -4,0 -6,0 z"
         inkscape:connector-curvature="0"
         style="clip-rule:evenodd;fill-rule:evenodd;stroke-width:0.33069435" />
      <path
         id="path-22"
         d="m 255.80757,337.88522 c 2.014,7.07 -6.173,8.655 -9,5 -1.019,-5.433 5.282,-7.478 9,-5 z m -7,5 c 2.319,0.319 3.839,-0.161 5,-1 0.279,-2.279 -0.241,-3.759 -2,-4 -0.895,1.772 -4.059,1.274 -3,5 z"
         inkscape:connector-curvature="0"
         style="clip-rule:evenodd;fill-rule:evenodd;stroke-width:0.33069435" />
      <path
         id="path-23"
         d="m 288.80757,336.88522 c -0.163,1.163 0.221,1.779 1,2 -0.027,4.103 -5.452,6.569 -9,4 -0.891,-5.558 2.782,-6.551 8,-6 z m -2,1 c -2.813,0.188 -4.261,1.739 -4,5 3.704,0.58 6.187,-2.695 4,-5 z"
         inkscape:connector-curvature="0"
         style="clip-rule:evenodd;fill-rule:evenodd;stroke-width:0.33069435" />
      <path
         id="path-24"
         d="m 308.80757,342.88522 c 2.378,-1.66 11.622,-1.66 14,0 -4.667,0 -9.333,0 -14,0 z"
         inkscape:connector-curvature="0"
         style="clip-rule:evenodd;fill:#b4ce51;fill-rule:evenodd;stroke-width:0.33069435" />
      <path
         id="path-25"
         d="m 355.80757,345.88522 c 1.422,3.073 0.448,4.497 -1,7 -1.667,0 -3.333,0 -5,0 -4.504,-3.651 0.462,-11 6,-7 z m -6,1 c -1.018,5.643 6.278,6.494 5,0 -1.667,0 -3.333,0 -5,0 z"
         inkscape:connector-curvature="0"
         style="clip-rule:evenodd;fill-rule:evenodd;stroke-width:0.33069435" />
      <path
         id="path-26"
         d="m 300.80757,375.88522 c 4.019,-2.315 12.319,-0.347 18,-1 -4.019,2.315 -12.319,0.347 -18,1 z"
         inkscape:connector-curvature="0"
         style="clip-rule:evenodd;fill:#b4ce51;fill-rule:evenodd;stroke-width:0.33069435" />
      <path
         id="path-27"
         d="m 167.80757,377.88522 c 22.333,0 44.667,0 67,0 0,0.333 0,0.667 0,1 -22.001,-0.666 -46.665,1.332 -67,-1 z"
         inkscape:connector-curvature="0"
         style="clip-rule:evenodd;fill:#e4e78f;fill-rule:evenodd;stroke-width:0.33069435" />
      <path
         id="path-28"
         d="m 234.80757,378.88522 c 0,-0.333 0,-0.667 0,-1 12.67,0.663 27.996,-1.329 39,1 -13,0 -26,0 -39,0 z"
         inkscape:connector-curvature="0"
         style="clip-rule:evenodd;fill:#b4ce51;fill-rule:evenodd;stroke-width:0.33069435" />
      <path
         id="path-29"
         d="m 165.80757,158.88522 c 0.19,-0.81 1.003,-0.997 1,-2 1.875,0.239 -0.567,1.646 1,2 -3.247,5.086 -14.406,2.26 -22,3 5.795,-1.872 14.561,-0.773 21,-2 0.184,-0.851 -0.39,-0.943 -1,-1 z"
         inkscape:connector-curvature="0"
         style="clip-rule:evenodd;fill:#b4ce51;fill-rule:evenodd;stroke-width:0.33069435" />
      <path
         id="path-30"
         d="m 141.80757,127.88522 c -1.307,-2.236 -11.979,-15.328 1,-16 0.374,7.292 4.371,10.963 7,16 -1.257,0.41 -2.044,1.29 -2,3 -1.332,0.149 -3.018,-4.066 -4,-1 -0.89,-0.443 -1.789,-0.878 -2,-2 z"
         inkscape:connector-curvature="0"
         style="clip-rule:evenodd;fill:#e4e78f;fill-rule:evenodd;stroke-width:0.33069435" />
      <path
         id="path-31"
         d="m 154.80757,127.88522 c 2.735,0.931 4.265,3.069 7,4 -1.657,2.55 -6.576,-0.012 -7,-2 1.454,-0.443 -0.102,-0.878 0,-2 z"
         inkscape:connector-curvature="0"
         style="clip-rule:evenodd;fill:#b4ce51;fill-rule:evenodd;stroke-width:0.33069435" />
      <path
         id="path-32"
         d="m 230.80757,334.88522 c 4.269,4.076 12.061,9.924 13,14 -3.742,-5.258 -9.258,-8.742 -13,-14 z"
         inkscape:connector-curvature="0"
         style="clip-rule:evenodd;fill:#b4ce51;fill-rule:evenodd;stroke-width:0.33069435" />
      <path
         id="path-33"
         d="m 226.80757,173.88522 c -2.248,-3.293 9.027,-1.605 13,-2 -2.051,2.949 -10.949,-0.949 -13,2 z"
         inkscape:connector-curvature="0"
         style="clip-rule:evenodd;fill:#b4ce51;fill-rule:evenodd;stroke-width:0.33069435" />
      <path
         id="path-34"
         d="m 228.80757,157.88522 c 3.049,-1.951 6.868,-3.132 10,-5 -2.232,2.768 -5.575,4.425 -10,5 z"
         inkscape:connector-curvature="0"
         style="clip-rule:evenodd;fill:#b4ce51;fill-rule:evenodd;stroke-width:0.33069435" />
      <path
         id="path-35"
         d="m 216.80757,149.88522 c 1.624,-5.043 7.739,-5.594 15,-5 -4.898,1.769 -13.114,0.219 -15,5 z"
         inkscape:connector-curvature="0"
         style="clip-rule:evenodd;fill:#b4ce51;fill-rule:evenodd;stroke-width:0.33069435" />
      <path
         id="path-36"
         d="m 166.80757,156.88522 c -7.521,-4.124 -16.8,-7.812 -20,-16 -1.542,-3.945 2.573,-9.02 -3,-11 0.982,-3.066 2.668,1.149 4,1 -0.044,-1.71 0.743,-2.59 2,-3 -2.629,-5.037 -6.626,-8.708 -7,-16 -12.979,0.672 -2.307,13.764 -1,16 -9.815,-2.547 -9.975,-21.204 2,-18 1.309,-15.394996 27.836,-13.129996 31,-1 3.25,-0.75 6.189,-1.811 9,-3 -12.076,-15.622996 2.981,-41.912996 22,-28.999996 16.038,-20.877 58.566,-9.824 55,21 12.318,5.278996 24.219,18.771996 20,39.999996 -1.5,7.55 -8.375,11.576 -13,17 -7.87,9.23 -15.208,25.79 -22,39 -7.664,14.905 -13.507,32.014 -14,46 -1.662,3.035 -1.662,12.965 0,16 -0.263,11.93 4.025,19.309 7,28 28.316,12.669 71.133,-40.27 22,-41 23.366,-23.479 75.325,-2.283 58,35 18.971,-6.474 42.294,8.225 35,28 54.173,12.761 25.731,80.049 -27,72 -9.339,0.661 -21.326,-1.326 -29,1 -8,0 -16,0 -24,0 -11.004,-2.329 -26.33,-0.337 -39,-1 -22.333,0 -44.667,0 -67,0 -35.43,1.507 -53.611,-63.818 -11,-68 -12.219,-18.947 4.302,-45.938 27,-36 1.392,-43.318 45.134,-71.874 21,-116 -9.728,2.454 -24.004,5.055 -33,0 -4.009,6.658 -16.494,4.839 -27,5 -2.465,3.978 -0.452,10.747 1,14 -0.86,1.908 -0.594,-1.08 -2,-1 -0.839,-2.828 -1.161,-6.172 -2,-9 1.85,-0.15 0.614,-3.386 2,-4 0.851,0.184 0.943,-0.39 1,-1 0.333,0 0.667,0 1,0 7.594,-0.74 18.753,2.086 22,-3 -1.567,-0.354 0.875,-1.761 -1,-2 z m 88,-41 c -5.417,-3.24 -12.479,3.574 -16,2 7.194,-6.325 23.235,-6.631 26,4 -2.631,-1.369 -3.79,-4.209 -7,-5 2.629,16.905 -10.692,25.773 -26,28 -7.261,-0.594 -13.376,-0.043 -15,5 -2.582,2.752 -7.537,3.13 -9,7 5.121,1.743 15.048,3.349 21,1 4.425,-0.575 7.768,-2.232 10,-5 1.003,0.003 1.19,-0.81 2,-1 -5.258,8.158 -19.003,10.602 -32,8 21.044,41.822 -18.191,68.121 -22,109 -3.615,38.805 12.522,65.023 33,86 16.539,16.941 40.816,23.74 70,20 -15.797,-2.292 -27.111,-18.23 -40,-22 -6.464,-1.891 -13.925,1.431 -20,-4 4.667,0 9.333,0 14,0 -0.939,-4.076 -8.731,-9.924 -13,-14 -0.586,-2.081 -2.102,-3.232 -3,-5 -6.972,-0.695 -14.77,-0.563 -19,-4 2.94,-2.727 12.125,0.792 15,-2 -4.741,-5.593 -7.573,-13.094 -10,-21 -6.532,-0.135 -11.193,-2.141 -15,-5 4.262,0.405 10.302,-0.969 13,1 -0.703,-8.298 -2.722,-15.278 -3,-24 -3.229,-2.438 -10.7,-0.633 -12,-5 4,0 8,0 12,0 1.467,-6.533 1.52,-14.479 3,-21 -2.984,-2.016 -8.564,-1.437 -9,-6 3.999,-0.332 5.551,1.782 10,1 2.166,-6.167 3.269,-13.398 6,-19 0.364,-4.03 -5.785,-1.549 -5,-6 2.333,0 4.667,0 7,0 1.785,-6.882 5.438,-11.896 7,-19 -2.97,0.236 -7.66,-2.917 -6,-4 3,0 6,0 9,0 2.492,-6.841 5.554,-13.112 9,-19 -4.028,-1.306 -9.573,-1.094 -13,-3 2.051,-2.949 10.949,0.949 13,-2 1,0 2,0 3,0 -0.2,-5.58 9.571,-11.339 3,-14 30.868,6.317 42.047,-31.635 27,-49 -13.915,-16.058996 -35.703,-2.519 -48,7 -14.024,-3.477 -31.02,-11.805 -48,-6 -0.956,1.862 2.995,3.342 0,4 -4.181,-17.042996 -36.596,-17.942996 -31,5 0.87,3.564 4.912,6.531 9,9 -0.102,1.122 1.454,1.557 0,2 -2.039,-0.558 -1.961,-3.009 -4,-1 -8.643,29.904 45.944,37.918 64,21 3.276,-1.724 4.724,-5.276 8,-7 15.15,2.479 29.518,-4.479 33,-17 1.674,-1.417 1.987,-9.93 -1,-10 z m -53,-14 c 7.243,-14.217996 28.481,-28.724996 46,-18.999996 4.369,2.425 6.396,8.956 10,7 -4.583,-31.478 -63.296,-27.846 -56,11.999996 z m -18,-3.999996 c 1.291,-7.695 7.769,-13.312 17,-10 -0.538,-4.538 2.01,-5.99 3,-9 -11.586,-9.34 -27.887,5.747 -20,19 z m 21,10.999996 c 9.414,2.461 26.046,8.28 30,-3 -24.386,-7.959996 13.08,-35.387996 9,-4 5.285,-0.715 10.643,-1.357 15,-2.999996 -8.311,-25.472 -54.137,-19.096 -54,9.999996 z m -18,-3 c 2.072,-0.595 6.569,1.236 7,-1 -5.257,-4.76 1.046,-11.240996 6,-11.999996 -5.985,-10.445 -17.39,3.435 -13,12.999996 z m 65,53 c -9.132,8.583 0.771,26.449 -15,30 -12.608,27.225 -28.687,56.905 -25,95 4.425,45.723 38.819,69.365 72,86 -2.089,-39.386 69.643,-39.841 63,4 23.393,-1.788 43.925,-33.086 29,-54 -3.898,-5.464 -13.212,-11.211 -24,-10 -6.521,0.731 -13.098,5.736 -20,8 -50.941,16.709 -95.797,-10.64 -102,-53 -4.733,-2.43 -7.819,-3.641 -9,-8 -3.392,-12.525 6.292,-13.09 9,-19 1.961,-4.281 3.088,-15.219 3,-19 -0.066,-2.827 -3.321,-5.05 -2,-8 -0.006,-3.339 6.506,-0.161 6,-4 8.624,-16.709 17.523,-33.144 27,-49 -0.667,0 -1.333,0 -2,0 -1.893,1.774 -6.604,0.729 -10,1 z m -6,13 c -3.846,2.821 -5.154,8.179 -7,13 6.031,-0.636 7.722,-5.611 7,-13 z m -14,43 c 3.638,0.638 3.929,-2.071 4,-5 -2.813,0.187 -4.26,1.74 -4,5 z m 37,26 c 33.497,5.553 9.746,43.257 -11,46 20.68,0.637 51.901,5.076 59,-11 -25.083,4.819 -19.935,-28.533 0,-22 -3.896,-18.096 -32.155,-23.839 -48,-13 z m -42,2 c -7.841,3.742 -5.344,18.694 3,20 0.701,-4.367 -1.701,-5.633 -1,-10 -0.459,-2.923 1.412,-13.345 -2,-10 z m 92,17 c 0,-1 0,-2 0,-3 -22.134,-11.385 -21.789,27.341 0,16 0,-1 0,-2 0,-3 1.655,-1.078 1.655,-8.922 0,-10 z m -140,24 c -0.484,-15.096 -24.417,-6.837 -24,8 9.35,6.46 24.3,1.339 24,-8 z m -24,10 c -0.348,7.349 2.612,11.388 6,15 12.031,-1.031 19.501,2.499 29,4 -3.256,-11.077 -6.204,-22.463 -6,-37 -2.672,0.577 -6.248,-2.958 -8,0 14.42,10.778 -6.956,26.618 -21,18 z m 169,-15 c -9.301,4.032 -15.457,11.209 -30,10 3.404,22.094 45.815,7.922 30,-10 z m -17,23 c -9.17,-1.011 -12.407,-8.256 -17,-12 -16.319,2.843 -35.131,-2.729 -49,-2 3.376,2.29 3.296,8.037 8,9 11.831,-3.209 22.54,2.582 20,17 24.616,12.828 64.518,5.46 83,-8 4.073,-17.379 -8.253,-26.19 -24,-27 5.15,15.824 -7.904,24.443 -21,23 z m -57,-4 c 3.256,7.078 9.82,10.847 17,14 2.867,-9.348 -5.583,-15.643 -17,-14 z m -116,39 c -0.473,8.881 2.166,16.071 7,22 7.709,-26.05 59.837,-17.929 49,16 19.001,-0.665 40.665,1.331 58,-1 -21.438,-4.563 -31.26,-20.74 -44,-34 -9.482,10.172 -25.129,-0.162 -21,-13 1.884,-5.857 9.061,-3.578 9,-9 -22.267,-13.415 -56.625,-6.852 -58,19 z m 60,-15 c -19.314,1.533 -5.284,30.42 9,17 -1.814,-6.853 -6.752,-10.582 -9,-17 z m 115,21 c -13.925,3.075 -23.023,10.977 -23,28 3.98,2.687 8.342,4.991 15,5 5.681,-0.653 13.981,1.315 18,-1 8.539,-0.461 19.049,1.049 26,-1 3.455,-17.271 -7.795,-28.095 -22,-31 -2.378,-1.66 -11.622,-1.66 -14,0 z m -166,18 c 4.272,11.73 24.553,16.111 46,14 8.973,-31.15 -39.864,-41.582 -46,-14 z"
         inkscape:connector-curvature="0"
         style="clip-rule:evenodd;fill-rule:evenodd;stroke:#000000;stroke-width:2.75578642;stroke-miterlimit:4;stroke-dasharray:none;stroke-opacity:0.98823529" />
      <path
         id="path-37"
         d="m 254.80757,115.88522 c 2.987,0.07 2.674,8.583 1,10 -0.271,-3.395 0.774,-8.107 -1,-10 z"
         inkscape:connector-curvature="0"
         style="clip-rule:evenodd;fill:#b4ce51;fill-rule:evenodd;stroke-width:0.33069435" />
      <path
         id="path-38"
         d="m 154.80757,127.88522 c -4.088,-2.469 -8.13,-5.436 -9,-9 -5.596,-22.942996 26.819,-22.042996 31,-5 2.995,-0.658 -0.956,-2.138 0,-4 16.98,-5.805 33.976,2.523 48,6 12.297,-9.519 34.085,-23.058996 48,-7 15.047,17.365 3.868,55.317 -27,49 6.571,2.661 -3.2,8.42 -3,14 -1,0 -2,0 -3,0 -3.973,0.395 -15.248,-1.293 -13,2 3.427,1.906 8.972,1.694 13,3 -3.446,5.888 -6.508,12.159 -9,19 -3,0 -6,0 -9,0 -1.66,1.083 3.03,4.236 6,4 -1.562,7.104 -5.215,12.118 -7,19 -2.333,0 -4.667,0 -7,0 -0.785,4.451 5.364,1.97 5,6 -2.731,5.602 -3.834,12.833 -6,19 -4.449,0.782 -6.001,-1.332 -10,-1 0.436,4.563 6.016,3.984 9,6 -1.48,6.521 -1.533,14.467 -3,21 -4,0 -8,0 -12,0 1.3,4.367 8.771,2.563 12,5 0.278,8.722 2.297,15.702 3,24 -2.698,-1.969 -8.738,-0.595 -13,-1 3.807,2.859 8.468,4.865 15,5 2.427,7.906 5.259,15.407 10,21 -2.875,2.792 -12.06,-0.727 -15,2 4.23,3.437 12.028,3.305 19,4 0.898,1.768 2.414,2.919 3,5 3.742,5.258 9.258,8.742 13,14 -4.667,0 -9.333,0 -14,0 6.075,5.431 13.536,2.109 20,4 12.889,3.77 24.203,19.708 40,22 -29.184,3.74 -53.461,-3.059 -70,-20 -20.478,-20.977 -36.615,-47.195 -33,-86 3.809,-40.879 43.044,-67.178 22,-109 12.997,2.602 26.742,0.158 32,-8 -0.81,0.19 -0.997,1.003 -2,1 -3.132,1.868 -6.951,3.049 -10,5 -5.952,2.349 -15.879,0.743 -21,-1 1.463,-3.87 6.418,-4.248 9,-7 1.886,-4.781 10.102,-3.231 15,-5 15.308,-2.227 28.629,-11.095 26,-28 3.21,0.791 4.369,3.631 7,5 -2.765,-10.631 -18.806,-10.325 -26,-4 3.521,1.574 10.583,-5.24 16,-2 1.774,1.893 0.729,6.605 1,10 -3.482,12.521 -17.85,19.479 -33,17 1.73,-1.603 2.929,-3.737 4,-6 -4.723,3.61 -7.866,8.801 -12,13 -18.056,16.918 -72.643,8.904 -64,-21 2.039,-2.009 1.961,0.442 4,1 0.424,1.988 5.343,4.55 7,2 -2.735,-0.931 -4.265,-3.069 -7,-4 z m 16,-3 c 1.952,-5.245 -2.438,-12.015 -10,-11 -1.092,7.639 4.241,13.467 10,11 z"
         inkscape:connector-curvature="0"
         style="clip-rule:evenodd;fill:#e4e78f;fill-rule:evenodd;stroke-width:0.33069435" />
      <path
         id="path-39"
         d="m 214.80757,149.88522 c 4.134,-4.199 7.277,-9.39 12,-13 -1.071,2.263 -2.27,4.397 -4,6 -3.276,1.724 -4.724,5.276 -8,7 z"
         inkscape:connector-curvature="0"
         style="clip-rule:evenodd;fill:#b4ce51;fill-rule:evenodd;stroke-width:0.33069435" />
      <path
         id="path-40"
         d="m 154.80757,158.88522 c 1.453,-0.547 5.168,1.168 5,-1 2.356,-0.022 2.944,1.723 6,1 0.61,0.057 1.184,0.149 1,1 -6.439,1.227 -15.205,0.128 -21,2 -0.333,0 -0.667,0 -1,0 -2.163,-2.554 7.742,-1.548 10,-3 z"
         inkscape:connector-curvature="0"
         style="clip-rule:evenodd;fill:#e4e78f;fill-rule:evenodd;stroke-width:0.33069435" />
      <path
         id="path-41"
         d="m 131.80757,181.88522 c -2.928,-0.261 -3.072,2.261 -6,2 10.896,-8.848 10.884,-35.584 34,-26 0.168,2.168 -3.547,0.453 -5,1 -0.027,-0.973 -1.224,-0.776 -2,-1 -3.25,-1.644 -6.189,-0.389 -9,1 -1.763,0.903 -3.097,2.237 -4,4 0,0.333 0,0.667 0,1 -1.23,0.437 -2.054,1.28 -2,3 -1.003,5.544 -6.792,10.916 -6,15 z"
         inkscape:connector-curvature="0"
         style="clip-rule:evenodd;fill-rule:evenodd;stroke-width:0.33069435" />
      <path
         id="path-42"
         d="m 143.80757,158.88522 c 2.811,-1.389 5.75,-2.644 9,-1 -2.489,0.291 -12.316,4.298 -9,1 z"
         inkscape:connector-curvature="0"
         style="clip-rule:evenodd;fill:#e4e78f;fill-rule:evenodd;stroke-width:0.33069435" />
      <path
         id="path-43"
         d="m 139.80757,162.88522 c 0.903,-1.763 2.237,-3.097 4,-4 -3.316,3.298 6.511,-0.709 9,-1 0.776,0.224 1.973,0.027 2,1 -2.258,1.452 -12.163,0.446 -10,3 -0.057,0.61 -0.149,1.184 -1,1 -1.386,0.614 -0.15,3.85 -2,4 0.228,-1.772 -1.008,-5.008 2,-4 0.003,-1.003 -0.81,-1.19 -1,-2 -1.427,0.239 -1.687,1.646 -3,2 z"
         inkscape:connector-curvature="0"
         style="clip-rule:evenodd;fill:#b4ce51;fill-rule:evenodd;stroke-width:0.33069435" />
      <path
         id="path-44"
         d="m 139.80757,162.88522 c 1.313,-0.354 1.573,-1.761 3,-2 0.19,0.81 1.003,0.997 1,2 -3.008,-1.008 -1.772,2.228 -2,4 0.839,2.828 1.161,6.172 2,9 -0.163,1.163 0.221,1.779 1,2 -0.31,1.357 -2.504,0.83 -4,1 -2.972,-0.239 -9.658,0.919 -8,2 0.184,0.851 -0.39,0.943 -1,1 -0.792,-4.084 4.997,-9.456 6,-15 0.973,-0.027 0.776,-1.224 1,-2 1.184,2.558 -2.125,9.178 -4,12 0.745,2.255 5.609,0.391 8,1 -1.941,-3.726 -1.613,-9.721 -3,-14 0,-0.333 0,-0.667 0,-1 z"
         inkscape:connector-curvature="0"
         style="clip-rule:evenodd;fill:#e4e78f;fill-rule:evenodd;stroke-width:0.33069435" />
      <path
         id="path-45"
         d="m 137.80757,166.88522 c -0.054,-1.72 0.77,-2.563 2,-3 1.387,4.279 1.059,10.274 3,14 -2.391,-0.609 -7.255,1.255 -8,-1 1.875,-2.822 5.184,-9.442 4,-12 -0.224,0.776 -0.027,1.973 -1,2 z"
         inkscape:connector-curvature="0"
         style="clip-rule:evenodd;fill:#b4ce51;fill-rule:evenodd;stroke-width:0.33069435" />
      <path
         id="path-46"
         d="m 143.80757,175.88522 c 1.406,-0.08 1.14,2.908 2,1 1.352,0.982 1.999,2.668 3,4 -1.793,-1.221 -5.559,0.541 -8,-2 1.496,-0.17 3.69,0.357 4,-1 -0.779,-0.221 -1.163,-0.837 -1,-2 z"
         inkscape:connector-curvature="0"
         style="clip-rule:evenodd;fill:#b4ce51;fill-rule:evenodd;stroke-width:0.33069435" />
      <path
         id="path-47"
         d="m 220.80757,265.88522 c 1,0 2,0 3,0 0,2 0,4 0,6 -4.487,1.363 -4.855,-4.027 -3,-6 z"
         inkscape:connector-curvature="0"
         style="clip-rule:evenodd;fill:#e4e78f;fill-rule:evenodd;stroke-width:0.33069435" />
      <path
         id="path-48"
         d="m 296.80757,268.88522 c 0,4.971 -8,4.971 -8,0 1.454,-1.47 6.546,-1.47 8,0 z"
         inkscape:connector-curvature="0"
         style="clip-rule:evenodd;fill:#e4e78f;fill-rule:evenodd;stroke-width:0.33069435" />
      <path
         id="path-49"
         d="m 154.80757,291.88522 c -0.417,-14.837 23.516,-23.096 24,-8 0.3,9.339 -14.65,14.46 -24,8 z"
         inkscape:connector-curvature="0"
         style="clip-rule:evenodd;fill:#e4e78f;fill-rule:evenodd;stroke-width:0.33069435" />
      <path
         id="path-50"
         d="m 284.80757,278.88522 c 2.635,-0.302 3.282,1.385 3,4 -1.333,0 -2.667,0 -4,0 -0.424,-2.09 0.686,-2.647 1,-4 z"
         inkscape:connector-curvature="0"
         style="clip-rule:evenodd;fill:#e4e78f;fill-rule:evenodd;stroke-width:0.33069435" />
      <path
         id="path-51"
         d="m 172.80757,300.88522 c 0.344,-2.322 0.647,-4.687 4,-4 2.456,3.412 -0.819,6.688 -4,4 z"
         inkscape:connector-curvature="0"
         style="clip-rule:evenodd;fill:#e4e78f;fill-rule:evenodd;stroke-width:0.33069435" />
      <path
         id="path-52"
         d="m 294.80757,299.88522 c 1.257,5.643 -5.58,4.278 -7,2 0.14,-2.86 4.171,-1.829 7,-2 z"
         inkscape:connector-curvature="0"
         style="clip-rule:evenodd;fill:#e4e78f;fill-rule:evenodd;stroke-width:0.33069435" />
      <path
         id="path-53"
         d="m 202.80757,338.88522 c -14.284,13.42 -28.314,-15.467 -9,-17 2.248,6.418 7.186,10.147 9,17 z"
         inkscape:connector-curvature="0"
         style="clip-rule:evenodd;fill:#e4e78f;fill-rule:evenodd;stroke-width:0.33069435" />
      <path
         id="path-54"
         d="m 306.80757,333.88522 c 0.777,4.492 -6.249,3.313 -7,1 -1.168,-4.101 6.953,-4.018 7,-1 z"
         inkscape:connector-curvature="0"
         style="clip-rule:evenodd;fill-rule:evenodd;stroke-width:0.33069435" />
      <path
         id="path-55"
         d="m 251.80757,337.88522 c 1.759,0.241 2.279,1.721 2,4 -1.161,0.839 -2.681,1.319 -5,1 -1.059,-3.726 2.105,-3.228 3,-5 z"
         inkscape:connector-curvature="0"
         style="clip-rule:evenodd;fill:#e4e78f;fill-rule:evenodd;stroke-width:0.33069435" />
      <path
         id="path-56"
         d="m 282.80757,342.88522 c -0.261,-3.261 1.188,-4.813 4,-5 2.187,2.305 -0.296,5.58 -4,5 z"
         inkscape:connector-curvature="0"
         style="clip-rule:evenodd;fill:#e4e78f;fill-rule:evenodd;stroke-width:0.33069435" />
      <path
         id="path-57"
         d="m 258.80757,98.885224 c -4.357,1.642996 -9.715,2.284996 -15,2.999996 4.08,-31.387996 -33.386,-3.959996 -9,4 -3.954,11.28 -20.586,5.461 -30,3 -0.137,-29.095996 45.689,-35.471996 54,-9.999996 z"
         inkscape:connector-curvature="0"
         style="clip-rule:evenodd;fill:#ffffff;fill-rule:evenodd;stroke-width:0.33069435" />
      <path
         id="path-58"
         d="m 199.80757,92.885224 c -4.954,0.759 -11.257,7.239996 -6,11.999996 -0.431,2.236 -4.928,0.405 -7,1 -4.39,-9.564996 7.015,-23.444996 13,-12.999996 z"
         inkscape:connector-curvature="0"
         style="clip-rule:evenodd;fill:#ffffff;fill-rule:evenodd;stroke-width:0.33069435" />
      <path
         id="path-59"
         d="m 235.80757,209.88522 c -0.071,2.929 -0.362,5.638 -4,5 -0.26,-3.26 1.187,-4.813 4,-5 z"
         inkscape:connector-curvature="0"
         style="clip-rule:evenodd;fill:#e4e78f;fill-rule:evenodd;stroke-width:0.33069435" />
      <path
         id="path-60"
         d="m 228.80757,252.88522 c -0.701,4.367 1.701,5.633 1,10 -8.344,-1.306 -10.841,-16.258 -3,-20 2.922,1.078 -0.922,8.922 2,10 z"
         inkscape:connector-curvature="0"
         style="clip-rule:evenodd;fill:#e4e78f;fill-rule:evenodd;stroke-width:0.33069435" />
      <path
         id="path-61"
         d="m 230.80757,305.88522 c -1.333,0 -2.667,0 -4,0 -5.094,-8.185 9.314,-8.465 4,0 z"
         inkscape:connector-curvature="0"
         style="clip-rule:evenodd;fill-rule:evenodd;stroke-width:0.33069435" />
      <path
         id="path-62"
         d="m 303.80757,309.88522 c -1.759,-0.241 -2.279,-1.721 -2,-4 1,0 2,0 3,0 0.424,2.09 -0.686,2.647 -1,4 z"
         inkscape:connector-curvature="0"
         style="clip-rule:evenodd;fill:#e4e78f;fill-rule:evenodd;stroke-width:0.33069435" />
      <path
         id="path-63"
         d="m 167.80757,324.88522 c 1.151,1.182 1.132,3.535 1,6 -2.465,0.132 -4.818,0.151 -6,-1 -0.805,-4.139 1.535,-5.132 5,-5 z"
         inkscape:connector-curvature="0"
         style="clip-rule:evenodd;fill-rule:evenodd;stroke-width:0.33069435" />
      <path
         id="path-64"
         d="m 297.80757,378.88522 c 7.674,-2.326 19.661,-0.339 29,-1 -7.674,2.326 -19.661,0.339 -29,1 z"
         inkscape:connector-curvature="0"
         style="clip-rule:evenodd;fill:#b4ce51;fill-rule:evenodd;stroke-width:0.33069435" />
      <path
         id="path-65"
         d="m 238.80757,184.88522 c 1.846,-4.821 3.154,-10.179 7,-13 0.722,7.389 -0.969,12.364 -7,13 z"
         inkscape:connector-curvature="0"
         style="clip-rule:evenodd;fill:#e4e78f;fill-rule:evenodd;stroke-width:0.33069435" />
      <path
         id="path-66"
         d="m 318.80757,269.88522 c 0,1 0,2 0,3 -21.789,11.341 -22.134,-27.385 0,-16 0,1 0,2 0,3 0,3.333 0,6.667 0,10 z"
         inkscape:connector-curvature="0"
         style="clip-rule:evenodd;fill:#e4e78f;fill-rule:evenodd;stroke-width:0.33069435" />
      <path
         id="path-67"
         d="m 293.80757,288.88522 c 14.543,1.209 20.699,-5.968 30,-10 15.815,17.922 -26.596,32.094 -30,10 z"
         inkscape:connector-curvature="0"
         style="clip-rule:evenodd;fill:#e4e78f;fill-rule:evenodd;stroke-width:0.33069435" />
      <path
         id="path-68"
         d="m 266.80757,311.88522 c -7.18,-3.153 -13.744,-6.922 -17,-14 11.417,-1.643 19.867,4.652 17,14 z"
         inkscape:connector-curvature="0"
         style="clip-rule:evenodd;fill:#e4e78f;fill-rule:evenodd;stroke-width:0.33069435" />
      <path
         id="path-69"
         d="m 243.80757,332.88522 c -7.206,-1.353 -13.833,-8.982 -11,-17 5.542,-15.678 27.943,9.423 11,17 z"
         inkscape:connector-curvature="0"
         style="clip-rule:evenodd;fill:#e4e78f;fill-rule:evenodd;stroke-width:0.33069435" />
      <path
         id="path-70"
         d="m 347.80757,321.88522 c 12.297,-6.649 17.242,16.395 8,19 -9.542,2.69 -17.299,-13.972 -8,-19 z"
         inkscape:connector-curvature="0"
         style="clip-rule:evenodd;fill:#e4e78f;fill-rule:evenodd;stroke-width:0.33069435" />
      <path
         id="path-71"
         d="m 161.80757,334.88522 c 1.807,5.467 -7.807,5.467 -6,0 2,0 4,0 6,0 z"
         inkscape:connector-curvature="0"
         style="clip-rule:evenodd;fill:#e4e78f;fill-rule:evenodd;stroke-width:0.33069435" />
      <path
         id="path-72"
         d="m 300.80757,375.88522 c -6.658,-0.009 -11.02,-2.313 -15,-5 -0.023,-17.023 9.075,-24.925 23,-28 4.667,0 9.333,0 14,0 14.205,2.905 25.455,13.729 22,31 -6.951,2.049 -17.461,0.539 -26,1 -5.681,0.653 -13.981,-1.315 -18,1 z"
         inkscape:connector-curvature="0"
         style="clip-rule:evenodd;fill:#e4e78f;fill-rule:evenodd;stroke-width:0.33069435" />
      <path
         id="path-73"
         d="m 188.80757,374.88522 c -21.447,2.111 -41.728,-2.27 -46,-14 6.136,-27.582 54.973,-17.15 46,14 z"
         inkscape:connector-curvature="0"
         style="clip-rule:evenodd;fill:#e4e78f;fill-rule:evenodd;stroke-width:0.33069435" />
      <path
         id="path-74"
         d="m 354.80757,346.88522 c 1.278,6.494 -6.018,5.643 -5,0 1.667,0 3.333,0 5,0 z"
         inkscape:connector-curvature="0"
         style="clip-rule:evenodd;fill:#e4e78f;fill-rule:evenodd;stroke-width:0.33069435" />
    </g>
  </g>
  <g
     inkscape:groupmode="layer"
     id="layer1"
     inkscape:label="CoffeeScript"
     transform="translate(-0.25255076,211.92384)">
    <path
       d="m -56.4,402.5 c -14.3,18 -20.4,38.8 -19.2,59.2 1.2,20.4 11.4,37.1 26.9,50.2 16.7,13.1 34.7,16.7 55.1,13.1 7.8,-1.2 16.7,-5.3 24.5,-7.8 -16.7,0 -31,-5.3 -44.9,-16.7 -15.5,-11.4 -25.7,-26.9 -28.2,-46.1 -3.7,-18 0,-34.7 10.2,-49 11.4,-14.3 25.7,-22 44.9,-24.5 19.2,-1.2 35.9,3.7 52.6,15.5 -3.7,-5.3 -9,-9 -14.3,-14.3 -16.7,-11.4 -34.7,-16.7 -56.7,-11.4 -19.9,3.6 -36.7,13.8 -50.9,31.8 z"
       id="path4773"
       inkscape:connector-curvature="0" />
    <path
       d="m 167.2,306.2 c -53.9,0 -101.6,-5.3 -136.3,-13.1 -37.1,-9 -56.7,-19.2 -56.7,-32.2 0,-5.3 2.4,-10.2 10.2,-15.5 -23.3,9 -35.9,16.7 -35.9,28.2 1.2,13.1 22,25.7 64.5,35.9 40,10.2 91.4,15.5 153,15.5 62.8,0 113,-5.3 153,-15.5 42.4,-10.2 62.8,-23.3 62.8,-35.9 0,-9 -9,-18 -25.7,-24.5 3.7,2.4 6.5,6.5 6.5,11.4 0,13.1 -19.2,23.3 -57.9,32.2 -36,8.2 -82.1,13.5 -137.5,13.5 z"
       id="path4771"
       inkscape:connector-curvature="0" />
    <path
       d="m 320.2,342.1 c -40,9 -91.4,15.5 -153,15.5 -62.8,0 -114.2,-6.5 -154.2,-15.5 -35.9,-9 -55.1,-19.2 -61.6,-29.4 6.5,44.9 22,87.3 42.4,124.8 15.5,23.3 31,43.7 46.1,65.7 6.5,13.1 11.4,25.7 14.3,38.8 10.2,14.3 24.5,23.3 42.4,28.2 22,7.8 44.9,11.4 68.1,10.2 h 2.4 c 23.3,1.2 47.7,-2.4 70.6,-10.2 16.7,-5.3 31,-14.3 41.2,-28.2 h 1.2 c 2.4,-13.1 6.5,-25.7 13.1,-38.8 15.5,-22 31,-42.4 46.1,-65.7 20.4,-37.1 34.7,-79.6 42.4,-124.8 -7.7,11.4 -26.9,21.6 -61.5,29.4 z"
       id="path4"
       inkscape:connector-curvature="0" />
    <path
       style="fill:#000000;fill-opacity:1"
       d="m 106,228.6 c 0.5,2.3 -0.9,4.4 -5,6.5 -5.5,-3.1 -16.9,-4.4 -26.7,-3.5 -10.4,0.9 -19.4,4.2 -17.9,11.3 1.5,7.1 11.7,11 29.5,9.5 43.6,-3.8 43.4,-33.3 107.4,-39 49.8,-4.4 77.8,11 81.8,29.7 3.1,14.7 -9.1,28.6 -45.2,31.8 -32,2.8 -50.7,-5.6 -52.6,-14.6 -1,-4.5 1.8,-11.3 17.2,-13.1 1.5,7 10.6,14.4 31.1,12.6 14.8,-1.3 27.6,-6.6 25.9,-14.9 -1.8,-8.6 -17.7,-13.7 -42.6,-11.5 -50.7,4.5 -63.2,32.5 -106.8,36.3 -30.8,2.7 -55.9,-8.5 -59.4,-25.1 -1.3,-6.1 -1.4,-21 31.2,-23.9 17.1,-1.5 30.7,1.5 32.1,7.9 z"
       id="path4775-9"
       inkscape:connector-curvature="0"
       clip-path="url(#clipPath4823)" />
  </g>
</svg>
