<svg version="1" xmlns="http://www.w3.org/2000/svg" width="2418.667" height="2418.667" viewBox="0 0 1814.000000 1814.000000"><path d="M1033.8.5c-.2.1-3.2.5-6.8.9-3.6.3-7.6.8-9 1.1-1.4.2-3.6.7-5 1-1.4.2-3.9.7-5.5 1-4 .6-24.4 6.5-26.4 7.6-2 1-11.4 5-12.1 5-1.1.1-15.5 8.3-16.1 9.1-.3.6-.9.9-1.3.9-2.2-.4-16.8 11-27.5 21.5l-9.3 9.2-8.9-4.5c-5-2.5-9.5-4.6-10.2-4.7-.7-.2-2.5-.8-4.2-1.5-3-1.2-11.2-3.5-17-4.6-6.5-1.3-22.3-1.3-29.6 0-22 3.8-39.8 14.7-57.4 35-3.6 4.1-12.6 18.8-15.7 25.5-2.8 6.1-7.4 19.1-8.2 23-.3 1.4-.8 3.6-1.1 5-.3 1.4-.7 3.6-1 5-.2 1.4-.6 4.1-1 6-1.9 9.7-1 31.1 2 46.5.7 3.7 4.2 15.3 5.5 18 .5 1.1 2.3 5 3.9 8.8 1.6 3.7 3.9 8 5 9.6 1.2 1.6 2.1 3.3 2.1 3.9 0 1-9.8 4.8-24 9.2l-9 2.8-3.7-7.1c-4.3-8.1-15.6-20.3-24.2-26.1-14.8-10-37.2-18.1-55.8-20.2-11-1.3-29.4-.8-38.5 1-1.6.4-3.8.8-5 1-5.2.9-18.7 6-24.8 9.3-6.7 3.6-13.4 8.6-18.3 13.8-5.8 6-14.2 20-14.9 25-.2 1.1-.7 2.5-1.1 3.2-.4.6-.8 2.3-.9 3.6-.1 1.4-.6 2.3-1 2-1.1-.6-11.3-.5-16.3.2-2.2.3-7.4 2.2-11.5 4.3-5.7 2.9-8.6 5.1-12.8 10-2.9 3.5-5.1 6.6-4.8 6.9.3.3-.1 1.2-.9 1.9-.7.8-2.4 4.6-3.6 8.6-1.9 6-2.3 9.5-2.4 19.8 0 15.1 1.6 21.7 8.2 34.9 7.8 15.7 19.3 25.9 34.5 30.8 4.6 1.5 8.5 2.8 8.7 3 .2.2 0 1.8-.6 3.7-1 3.3-.9 3.5 2.1 4.6 11.7 4.4 14 6.3 15.3 12.5.5 2.2.5 6.9.1 10.5-2.1 19.2-2 24.9.5 35.6.2.7.8 1.8 1.4 2.5.6.8 1.1 1.6 1.1 1.9 0 1.4 3.5 9 4.2 9 .4 0 1.1 1.1 1.4 2.5.4 1.4 1.1 2.5 1.6 2.5.6 0 1 .5 1 1.1 0 2.2 12.8 17.2 20.3 23.5 8.4 7.2 29.6 22.4 31.3 22.4.3 0 1.8.8 3.2 1.9 3 2.1 9.2 5.5 25.7 14.1 23.7 12.4 24 12.6 24.3 15.7.2 2.3-.1 2.9-2 3.1-1.3.1-3.2.4-4.2.5-2.9.5-8.1-.7-17.6-4.1-6.1-2.3-8.8-2.8-9.7-2-.8.7-1.3.7-1.3 0 0-.5-.8-1.2-1.7-1.5-1-.3-5.2-1.7-9.3-3.2-25.4-8.9-50.1-9.4-67.8-1.4-9.6 4.3-16.8 9.4-24.8 17.3-14 14.1-20.5 24.5-45.4 73.1-15.7 30.6-23.3 42.4-35.8 55.7l-6.7 7.1 4.4-.6c2.4-.3 6.6-2 9.5-3.8 8.6-5.5 12.1-6.9 17.4-7.2 5.4-.4 8.6-2.2 7.8-4.4-.6-1.5.4-1.6 22.7-1.8 25.1-.2 47.7 4.4 66.1 13.7l7.9 3.9-.7-4.2c-.8-4.9-2.9-9-10.7-20.8-5.5-8.2-5.6-8.5-4.3-11.6.7-1.8 1-3.6.6-4-.4-.3-.7-1-.8-1.3-.1-.8-1.1-3.5-2.6-7.2-5.5-13.5-9.3-32.6-8.9-45 .2-6.3.4-8 2.1-13.6l1.2-3.9 5.6.2c14.9.6 71.7.6 79.2 0 19.3-1.6 39.3-6.5 48.9-12 4.4-2.5 11.9-8.3 14.7-11.3 2.3-2.6 3.1-2.6 9.8.4 9.1 4.1 27.5 8.5 41.2 9.8 14.5 1.5 52.2.8 63.4-1 1.4-.3 4.8-.7 7.5-1.1 9.6-1.2 19.9-2.8 25.3-4 1.2-.3 3.2-.7 4.5-1 1.2-.3 4.2-.8 6.7-1.1 2.5-.3 4.8-.8 5.3-1.1.4-.2 1.9-.6 3.3-.9 1.4-.3 5.5-1.2 9.1-2 6.3-1.5 6.4-1.4 8.3.8 1.1 1.3 1.9 2.6 2 3 0 .3 1.8 4.6 4.1 9.5 6.4 13.8 7.4 16.2 11.3 26.3 4.3 11.5 10.3 31.4 12.1 40 1.5 7.5 3.6 19.5 4 23.1.3 2.4.7 6 1 7.9.2 1.9.7 10.1 1.1 18.2.6 12.2.4 14.8-.7 15.2-9.4 2.7-26.9 8.8-36.9 12.8-23.2 9.4-37.5 17.2-77 42.3-31.4 20-39 24.3-60.3 33.9-9.2 4.2-32.7 11.3-42.7 13-1.9.3-4.6.8-6 1.1-1.4.3-4.5.8-7 1.1-2.5.3-5.6.7-6.9.9-13.3 2.2-45.1 2.3-56.6.1-1.1-.2-3.8-.6-6-1-17-3-31.6-11.9-36.5-22.2-4.9-10.5-2.1-20.5 7.7-27.6 18.4-13.4 64.3-18.1 104.3-10.7 7.2 1.3 21.4 5.8 23.6 7.4 1.5 1 2.6.6 7.6-2.8 12-8.2 13.3-17.4 3.6-26.3-12.3-11.4-35.9-16.4-73.8-15.8-10.2.2-20.1.5-22 .8-1.9.3-5.9.8-8.9 1.2-3 .3-6.4.8-7.5 1-1.2.2-3.7.6-5.6.9-16.1 2.2-37.6 9.7-49.5 17.2-17.6 11.3-25.8 25.7-25.1 44.6.6 16.6 7.5 31.2 21.1 45 13.3 13.4 34.7 25.6 58 33 9.5 3 14.3 4.2 29.5 7.2 5.4 1.1 16.8 2.6 24.9 3.2 16.1 1.3 51.1.7 61.1-1.1 1.4-.3 5.2-.7 8.5-1.1 3.3-.3 7.9-1.1 10.3-1.6 2.3-.5 5.9-1.2 8-1.5 12.5-2 43.7-11.6 57.5-17.8 23.6-10.5 33.4-15.4 68.5-34.2 10.6-5.7 19.4-10.4 19.6-10.4.5 0 .2 1.8-.7 4-.3.8-2.5 7.6-5 15-3.9 11.7-15 40.4-19.1 49.5-.8 1.6-3 6.5-5 10.8-2 4.3-3.6 8-3.6 8.2 0 .3-2.5 5.7-5.6 12.2-3.1 6.5-7.4 15.6-9.6 20.3-2.3 4.7-8.8 18.2-14.6 30-5.7 11.8-11.3 23.4-12.3 25.7-1.7 3.9-2 4.2-5.1 3.8-1.8-.2-9.8-.6-17.8-1-16.3-.7-21.5-1-51.5-3-8.7-.6-19.3-1.4-26.5-2-3-.3-8.2-.7-11.5-1-3.3-.3-8-.7-10.5-1-2.5-.3-7.4-.7-11-1-3.6-.4-7.8-.8-9.5-1-1.6-.2-5.7-.6-9-1-11-1.1-23.1-2.5-26.5-3-1.4-.2-5-.6-8-1-10.5-1.2-13.5-1.6-15-2-.8-.2-4-.7-7-1-3-.3-6.6-.7-8-1-1.4-.2-7.4-1.1-13.5-2-6-.9-17.5-2.7-25.5-4-13.9-2.4-16.3-2.8-22-4-1.4-.2-4.1-.7-6-1-2.9-.4-5.5-1-10-2-.3-.1-2.5-.5-5-.9-2.5-.5-5.2-1-6-1.2-.8-.1-6-1.2-11.5-2.4s-13.6-3-18-4.2c-4.4-1.1-8.7-2.1-9.6-2.3-3-.6-24.2-6.5-34.4-9.6-31-9.4-56.1-19-74.9-28.8-16-8.2-24.5-14.1-34.3-23.5-11-10.6-16.2-20.4-16.8-31.6-.2-4.1.1-9.8.6-12.5 2-10.8 11.3-24.2 22.8-33 2.8-2.2 4.9-4 4.7-4.3-.4-.3-5.3 1.5-14.1 5.3-3 1.3-8.3 3.5-14 5.8-8.4 3.4-38.1 19-45.5 24-56.7 37.8-43.7 82.2 35.2 120 25 12 57.6 23.9 89.8 32.7 1.9.5 6.7 1.8 10.5 2.9 12.9 3.6 66.1 16.5 77.5 18.7 1.4.3 8.8 1.8 16.5 3.4 7.7 1.5 16.2 3.1 18.9 3.5 2.7.3 5.2.8 5.5 1 .3.1 2.4.6 4.6.9 2.2.4 4.7.8 5.5 1.1.8.2 3.8.6 6.5 1 2.8.3 10.2 1.5 16.5 2.5 11.5 1.9 14.1 2.3 23.5 3.5 2.8.4 6.4.9 8 1.1 1.7.3 4.4.7 6 .9 1.7.2 5.7.7 9 1.1 3.3.4 6.7.8 7.5.9.8.1 3.8.5 6.5.8 5.5.8 7.8 1 23.5 2.7 5.8.6 12.1 1.3 14 1.5 1.9.2 7.1.7 11.5 1 4.4.4 9.1.8 10.5 1 2.3.4 8.9.9 24 2 3 .2 8.4.6 12 .9 6.6.6 19.8 1.4 32.5 2.1 19.1 1.1 32.5 1.8 37.5 2 6 .3 43.5 1.5 62 2.1 17.9.5 120.4.4 140.5-.1 38.2-1 65.3-2 82.5-3 4.7-.3 12.6-.7 17.5-1 15-.9 25.7-1.5 31.5-2 3-.3 9.1-.7 13.5-1 4.4-.3 10-.8 12.5-1 2.5-.3 7.9-.7 12-1.1 4.1-.3 8.6-.7 10-.9 1.4-.2 5.7-.6 9.5-.9 3.9-.4 8.6-.8 10.5-1.1 1.9-.2 5.5-.7 8-.9 2.5-.3 7.2-.8 10.5-1.2 3.3-.3 7.1-.7 8.5-.9 2.6-.2 11.7-1.4 16-2 1.4-.2 4.4-.6 6.8-.9 2.3-.3 6.1-.9 8.5-1.2 4.8-.6 7.5-1 13.2-1.8 2.2-.4 5.8-.9 8-1.1 2.2-.3 5.1-.7 6.5-1 1.4-.2 4.1-.7 6-1 1.9-.3 4.9-.8 6.5-1.1 1.7-.3 3.9-.7 5-.9 1.1-.2 3.8-.6 6-1 2.2-.3 5.4-.9 7-1.1 1.7-.3 4.8-.9 7-1.4 2.2-.5 5.6-1.1 7.5-1.4 3.6-.6 5-.9 13.6-2.6 2.8-.6 6.4-1.3 8-1.6 14.6-2.6 73.4-16.7 91.4-22 27.3-7.9 44.9-13.8 63.5-21.1 25.5-10 53.4-24.8 68.2-36.2 5.9-4.6 16.5-15.7 20.1-21.1 20-29.9 1.4-64.6-48.1-89.9-6.2-3.2-13.7-6.7-16.7-8l-5.5-2.2 5.2 5.2c9.8 9.6 13.4 18.7 12.8 32-.3 7.2-.8 9.2-4.4 16.3-7.4 14.9-21.9 27.2-46.8 39.9-35.1 17.8-89.2 34.2-160.8 48.7-17.7 3.6-34.8 6.8-40 7.5-2.2.4-4.7.8-5.5 1-.8.3-4.6.9-8.5 1.5-3.8.5-8.1 1.2-9.5 1.4-5.7 1-16.7 2.7-19.8 3.1-1.8.2-4.5.6-6 .9-1.5.3-4.9.8-7.7 1.1-2.7.3-8.1 1-12 1.6-3.8.5-9.5 1.2-12.5 1.5-3 .2-6.6.7-8 .9-1.4.3-5 .7-8 1-3 .3-7.1.8-9 1-1.9.2-6.4.7-10 1-3.6.4-7.6.8-9 1-1.4.2-6.1.7-10.5 1.1-4.4.4-9.3.8-11 .9-1.6.2-7.3.6-12.5 1s-10.3.9-11.3 1.1c-1 .2-6.6.6-12.5.9-5.9.3-12.7.8-15.2 1-2.5.2-10.4.7-17.7 1-7.3.4-14 .8-15 1-1 .1-2.1.1-2.4-.1-.4-.2.2-5 1.2-10.6 1-5.7 2.1-11.7 2.4-13.3.2-1.7 1.2-6.2 2.1-10 .8-3.9 1.7-7.8 1.9-8.8.2-1 .7-2.7 1-3.8.4-1 .8-2.9.9-4.2.2-1.2.8-3.5 1.5-5 .6-1.6 1.1-3.3 1.1-3.9 0-.6 1-4.3 2.1-8.2 1.2-3.9 2.2-7.6 2.4-8.1.1-.8 1.2-4.5 3-10.5.1-.3.5-1.7.9-3.2.5-1.6 1.1-2.8 1.5-2.9.3 0 8-.2 17.1-.4 20.5-.4 41.2-2 52-4 1.4-.3 4.3-.7 6.5-1 4-.5 7.8-1.1 12.5-2 1.4-.3 3.4-.7 4.5-.9 32.2-6.2 64.3-20.5 79.6-35.5 8.9-8.8 16.9-22.5 18.6-32.1.4-2.5.7-9 .7-14.5-.3-18.7-8.1-35.4-24.2-51.8-18-18.4-44.9-32.9-78.4-42.2-3.2-.8-5.8-1.8-5.8-2.1 0-.7 16.5-33.5 24.8-49.4 3.9-7.4 8.6-16.4 10.4-20 1.8-3.6 3.6-6.7 3.9-7 .3-.3 2.1-3.4 4.1-7 6.6-12.2 9.1-16.5 13.5-23.3 2.4-3.7 4.3-6.9 4.3-7.2 0-1 19.7-29.5 25.9-37.4 3.6-4.6 17.5-19.2 30.7-32.5 24.3-24.2 30.4-31.1 36.7-40.9 3.9-6.1 10-18.8 11.2-23.2.5-1.7 1-3.5 1.1-4 1.1-3.2 3.1-13.5 3.8-19.5.3-2.5.8-5.6 1.1-6.8.8-4.2 1.8-21.4 1.8-30.7 0-9-1.1-27.4-1.8-28.5-.1-.3-.6-2.7-.9-5.4-1.5-10.9-7.3-31.8-12.1-43.1-3.5-8.4-10.7-22.5-11.4-22.5-.4 0-.8-.6-.8-1.3 0-1.8-9.3-15.5-16.7-24.7-8.6-10.7-20.8-22.6-32-31.5-7-5.5-22-15.5-23.2-15.5-.7 0-1.4-.3-1.6-.8-.4-1-5.2-3.7-12-6.8-3.2-1.5-5.5-3-5.2-3.5.7-1.1.6-28.6-.1-31.9-.3-1.4-.8-4.5-1.1-7-2.8-21.6-11.3-43.5-24.1-62.9-7-10.5-9.2-13.1-21.3-25.1-9.1-9.1-23.8-21-25.8-21-.6 0-1.2-.3-1.4-.8-.6-1.3-12.1-7.9-22.8-13-18.2-8.7-44.7-16.3-65-18.7-5.5-.7-40.6-1.5-41.2-1zM1160.1 731c3 .6 6.8 1.3 8.4 1.6 5.8 1 20.6 6.4 26.6 9.7 23.6 13.1 26.5 35.4 6.4 49.3-11.7 8.2-32.8 15.3-53 18-2.7.3-5.9.8-7 1-1.1.2-7.3.7-13.7 1-8.7.5-11.8.4-11.8-.5 0-3.5 23.5-55.2 35.3-77.9 2-3.6 1.6-3.5 8.8-2.2z"/><path d="M277.1 979c0 .8.4 3.3.8 5.5.5 2.2 1.2 6.2 1.6 9 .6 5.2 1.1 8.2 2 12.5.3 1.4 1 5.2 1.5 8.5s2.8 14.8 5.1 25.5c2.2 10.7 4.2 20.6 4.5 22 .3 1.4.8 3.4 1.1 4.5.4 1.1.8 2.4.9 3 1 4.7 1.6 7 3.3 14 2 8.1 9.4 35.5 11.1 41 .5 1.6 2.8 9.1 5.1 16.5 2.2 7.4 6.5 20.9 9.5 29.8 3 9 5.4 16.8 5.2 17.2-.2.5-4.3 3.5-9.3 6.7-43.6 28.7-84.8 78.1-105.5 126.8-11 25.6-18.4 54.4-20.8 80.5-1.5 16.8-.6 49.7 1.8 62 .4 2.5.8 4.6.9 4.8 0 .1.3 1.9.7 4 .9 5.6 3.2 13.7 6.6 23.7 3.1 9 14.8 33.9 19 40.5 1.3 1.9 3.2 5 4.3 6.8 1.1 1.9 4 5.9 6.3 9 2.4 3.1 5.6 7.3 7 9.2 7.2 9.3 25.5 27.8 36.7 37 18.5 15.1 48.1 31.1 67.9 36.5 2.8.8 7.6 2.1 10.6 2.9 3 .9 7.1 1.8 9 2.1 2 .3 4.7.8 6 1 2.4.5 4 .7 16.5 2 6.5.7 30.2.8 35 .1 1.7-.2 6.4-.7 10.5-1.1 18.4-1.6 39.1-7.1 73-19.5 6.3-2.3 13.3-4.8 15.5-5.5 4.4-1.5 4.4-1.5-7-2-47.3-2.2-89.2-19.6-133.2-55.4-1.7-1.4-5.1-4.2-7.4-6.1-5.7-4.6-18.9-16.9-21.2-19.7-.9-1.2-3.2-3.7-5-5.5-4-4.2-14.1-17.5-18.9-24.8-3.4-5.2-12.8-21.8-12.8-22.6 0-.2-1.3-3.2-2.9-6.6-5.3-11.8-11.4-32-13.6-45.1-.3-1.8-1-5.7-1.5-8.7-.5-3-1.2-7.3-1.5-9.5-.4-2.2-.8-5.1-1.1-6.5-1.2-7.1-1.7-15.8-1.7-27.5.1-19.4 1.2-28 5.8-46.1 7.6-30 21.6-56.2 41.6-78 5.2-5.6 9.6-10.3 9.9-10.3.3-.1 1.4 2 2.4 4.7 1.1 2.6 2.7 6.5 3.7 8.7 1 2.2 4.2 9.6 7.2 16.5 16 37 41.3 86.9 52.2 103 3.2 4.7 9 13.2 12.9 19 3.9 5.8 7.4 10.9 7.8 11.5.5.5 3 4 5.6 7.7 2.6 3.8 9 12.9 14.2 20.3 5.2 7.4 23 32.4 39.5 55.5 45.2 63.3 56.4 79.5 61.1 88.9 16.5 32.8 31.6 73.4 39.5 106 2.7 11 8 18.4 27.5 37.7 8.4 8.4 27.7 23.8 34.9 27.8 1.7 1 4.8 2.8 7 4.1 12.5 7.5 34.4 17.2 50.8 22.5 42.5 13.6 45.9 14.7 59.7 18.4 20.4 5.5 53.1 12.1 64.5 13.1 1.7.1 4.4.5 6 .8 1.7.4 5.9.9 9.5 1.3 3.6.3 7.9.8 9.5 1 24.7 2.7 149.2 2.7 166.6 0 1.3-.3 5.5-.7 9.3-1.1 3.8-.4 7.9-.8 9-1 1.2-.2 4.1-.6 6.6-.9 2.5-.3 5.4-.8 6.5-1 1.1-.2 4.3-.7 7-1 4.1-.6 21.1-3.7 27.5-5.1 21.8-4.7 37.9-8.8 55-14.1 47.8-14.7 73.1-26.6 101.8-48.1 9.8-7.4 28.9-25.1 34.7-32.3 1.1-1.4 4.1-5.1 6.8-8.4 2.6-3.2 4.7-5.6 4.7-5.2 0 .4.8.2 1.8-.3 1.3-.7 2.2-3.1 3.1-7.8 2.1-11.9 8.8-37.4 13.1-49.8 2.2-6.6 4.2-12.7 4.4-13.6.2-.9 2.9-7.6 5.9-15 12.3-30.1 12.7-30.7 57.5-93.2 70.8-98.6 96.4-136.1 108.7-158.7 11.8-21.8 44.5-90.7 44.5-93.7 0-.4 3.9-9.9 7-16.8 2-4.5 14.1-36.9 18.5-49.5 8.6-24.6 17.9-53.9 24-76 2.5-9.1 5-17.9 5.6-19.7.5-1.8 1.2-4 1.4-5 .2-1 1.5-6.5 3-12.3 1.5-5.8 2.8-11.2 3-12.1.2-.8 1-4.4 1.9-8 .9-3.5 2.5-10.7 3.7-15.9 1.1-5.2 2.3-10.4 2.5-11.5.3-1.1.9-4.7 1.5-7.9.5-3.3 1.2-6.2 1.4-6.6.4-.6.8-2.9 2.1-10.5.3-1.7.7-3.7.9-4.5.2-.8.7-3.1 1-5 .5-3.3.8-4.7 2-11 .3-1.4.8-4.5 1.1-7l.6-4.5-1.9 2.6c-5.3 7.7-20.1 21.3-31.3 29-19.4 13.3-46.7 26.3-77.5 36.9-19 6.6-45.9 14.5-59.5 17.5-.8.2-7.1 1.7-14 3.4s-13.6 3.2-15 3.5c-1.4.2-5.9 1.2-10 2.1-4.1.9-8.6 1.9-10 2.1-1.4.3-10.4 2.1-20 4s-18.6 3.6-20 3.9c-16.1 2.9-32.4 5.6-36 6.1-2.5.3-5.2.7-6 .9-.8.2-3.5.7-6 1-2.5.3-5.6.8-7 1-3.4.6-6.3 1.1-23 3.5-14.5 2-18.7 2.6-25.7 3.4-8.4 1-14.9 1.8-16.3 2.1-.8.2-4.9.6-9 1s-8.2.8-9 1c-.8.2-4.9.6-9 1-4.1.3-8.6.8-10 1-1.4.2-5.6.6-9.5 1-3.8.3-8.1.8-9.5 1-1.4.2-6.3.7-11 1-4.7.4-10.1.8-12 1-1.9.2-7.8.6-13 1-5.2.3-10.6.8-12 1-1.4.2-7.9.7-14.5 1-6.6.4-14 .8-16.5 1-2.5.2-10.6.6-18 1s-16.2.8-19.5 1c-45.1 2.7-186.1 2.7-237.5 0-4.1-.2-13.1-.6-20-1-12.4-.6-14.3-.8-33.2-2-23.3-1.4-34.3-2.3-52.8-4-2.5-.2-7.6-.7-11.5-1-3.8-.3-8.1-.8-9.5-1-1.4-.2-6.1-.7-10.5-1-13.5-1.2-14.7-1.4-27.5-3-1.9-.3-6-.7-9-1-3-.4-6.6-.8-8-1-1.4-.2-4.7-.7-7.5-1-2.7-.3-6.1-.7-7.5-1-1.4-.2-5-.7-8-1-3-.3-6.6-.8-8-1-1.4-.2-4.5-.6-7-1-9.3-1.2-21.5-3.1-30-4.5-3-.6-7.5-1.2-9.9-1.5-2.4-.3-4.7-.7-5-.9-.3-.2-3.1-.7-6.1-1.1-3-.4-5.7-.8-6-1-.3-.2-2.7-.6-5.3-.9-12.3-1.7-67.9-12.9-85.2-17.2-32.7-8.2-74.4-21.5-99.9-31.8-24.4-9.9-52.2-24.8-64.7-34.8-5.6-4.4-18-16.6-20.7-20.3-1.2-1.8-2.1-2.4-2.1-1.5z"/></svg>